<?xml version="1.0" standalone="no"?>
<!DOCTYPE svg PUBLIC "-//W3C//DTD SVG 1.1//EN" "http://www.w3.org/Graphics/SVG/1.1/DTD/svg11.dtd" >
<!--
2013-9-30: Created.
-->
<svg>
<metadata>
Created by iconfont
</metadata>
<defs>

<font id="iconfont" horiz-adv-x="1024" >
  <font-face
    font-family="iconfont"
    font-weight="500"
    font-stretch="normal"
    units-per-em="1024"
    ascent="896"
    descent="-128"
  />
    <missing-glyph />
    
    <glyph glyph-name="shanchu" unicode="&#58991;" d="M621.714286 896a146.285714 146.285714 0 0 0 145.92-135.314286L768 749.714286h219.428571a36.571429 36.571429 0 0 0 0-73.142857h-73.142857v-621.714286a182.857143 182.857143 0 0 0-170.861714-182.491429L731.428571-128H292.571429a182.857143 182.857143 0 0 0-182.491429 170.861714L109.714286 54.857143V676.571429h-73.142857a36.571429 36.571429 0 0 0 0 73.142857h219.428571A146.285714 146.285714 0 0 0 391.314286 895.634286L402.285714 896h219.428572z m219.428571-219.428571h-658.285714v-621.714286a109.714286 109.714286 0 0 1 99.181714-109.202286L292.571429-54.857143h438.857142a109.714286 109.714286 0 0 1 109.202286 99.181714l0.512 10.532572V676.571429zM512 566.857143a36.571429 36.571429 0 0 0 36.571429-36.571429v-438.857143a36.571429 36.571429 0 0 0-73.142858 0V530.285714a36.571429 36.571429 0 0 0 36.571429 36.571429z m-182.857143-73.142857A36.571429 36.571429 0 0 0 365.714286 457.142857v-292.571428a36.571429 36.571429 0 0 0-73.142857 0V457.142857a36.571429 36.571429 0 0 0 36.571428 36.571429z m365.714286 0a36.571429 36.571429 0 0 0 36.571428-36.571429v-292.571428a36.571429 36.571429 0 0 0-73.142857 0V457.142857a36.571429 36.571429 0 0 0 36.571429 36.571429zM621.714286 822.857143h-219.428572a73.142857 73.142857 0 0 1-72.630857-64.585143L329.142857 749.714286h365.714286a73.142857 73.142857 0 0 1-64.585143 72.630857L621.714286 822.857143z"  horiz-adv-x="1024" />

    
    <glyph glyph-name="jinggao" unicode="&#58992;" d="M512.000732 895.992686c-70.581748 0-137.06756-13.311791-199.384296-40.008514a513.235363 513.235363 0 0 1-163.106008-109.566279 513.235363 513.235363 0 0 1-109.493137-163.106008A501.898399 501.898399 0 0 1 0.008777 384.000731c0-70.581748 13.311791-137.06756 40.008514-199.384295a513.235363 513.235363 0 0 1 109.566279-163.106008 513.235363 513.235363 0 0 1 163.106008-109.493137A501.898399 501.898399 0 0 1 512.000732-127.991223c70.581748 0 137.06756 13.311791 199.384295 40.008514a513.235363 513.235363 0 0 1 163.106008 109.566278 513.235363 513.235363 0 0 1 109.493137 163.106009A501.898399 501.898399 0 0 1 1023.992686 384.000731c0 70.581748-13.311791 137.06756-40.008514 199.384296a513.235363 513.235363 0 0 1-109.566278 163.106008A513.235363 513.235363 0 0 1 711.311885 855.91103 501.898399 501.898399 0 0 1 512.000732 895.992686zM512.000732 192.003749c17.773435 0 32.913768-6.217045 45.347858-18.651136 12.43409-12.43409 18.651135-27.574424 18.651136-45.347859 0-14.774625-4.388502-27.793849-12.946082-38.838247l-5.705054-6.43647a61.731601 61.731601 0 0 0-36.86342-18.285427L512.000732 64.00576a61.731601 61.731601 0 0 0-39.057672 13.019224l-6.290187 5.631911a61.65846 61.65846 0 0 0-18.651136 45.347859c0 14.774625 4.388502 27.793849 12.946083 38.838247l5.705053 6.43647A61.65846 61.65846 0 0 0 512.000732 192.003749z m0 511.991954c17.773435 0 32.913768-6.582754 45.347858-19.601978a66.558954 66.558954 0 0 0 18.651136-47.615252v-313.558501c0-15.579184-4.388502-29.183541-12.946082-40.813073l-5.705054-6.802179a60.634476 60.634476 0 0 0-36.86342-19.163127L512.000732 256.002743a59.756775 59.756775 0 0 0-39.057672 13.677499l-6.290187 5.924478a66.485812 66.485812 0 0 0-18.651136 47.615252V636.851615c0 15.506042 4.388502 29.1104 12.946083 40.813073l5.705053 6.729037A60.195625 60.195625 0 0 0 512.000732 703.995703z"  horiz-adv-x="1024" />

    
    <glyph glyph-name="shangjia" unicode="&#58993;" d="M987.428571 530.285714a36.571429 36.571429 0 0 0 35.986286-29.988571L1024 493.714286v-438.857143a109.714286 109.714286 0 0 0-99.181714-109.202286L914.285714-54.857143h-804.571428a109.714286 109.714286 0 0 0-109.202286 99.181714L0 54.857143v438.857143a36.571429 36.571429 0 0 0 72.557714 6.582857L73.142857 493.714286v-438.857143a36.571429 36.571429 0 0 1 29.988572-35.986286L109.714286 18.285714h804.571428a36.571429 36.571429 0 0 1 35.986286 29.988572L950.857143 54.857143v438.857143a36.571429 36.571429 0 0 0 36.571428 36.571428zM530.066286 816.201143l5.12-4.461714 127.414857-131.657143a36.571429 36.571429 0 0 0-47.542857-55.222857l-4.973715 4.388571-61.513142 63.561143V186.514286a36.571429 36.571429 0 0 0-73.142858 0V696.027429l-60.854857-66.194286a36.571429 36.571429 0 0 0-46.445714-6.144l-5.266286 4.022857a36.571429 36.571429 0 0 0-6.144 46.445714l4.022857 5.266286 121.344 131.657143a36.571429 36.571429 0 0 0 47.981715 5.12z"  horiz-adv-x="1024" />

    
    <glyph glyph-name="sousuo" unicode="&#58994;" d="M221.9008 499.2h57.4976c0 79.2576 63.1808 143.7184 140.8 143.7184V700.4672c-109.3632 0-198.2976-90.3168-198.2976-201.216z m696.4736-397.056l-224.512 228.6592a332.4416 332.4416 0 0 1 37.6832 153.9584c0 182.3232-146.0224 330.7008-325.5296 330.7008-179.456 0-325.4784-148.3776-325.4784-330.7008 0-182.272 146.0224-330.5984 325.4784-330.5984 62.0032 0 119.808 17.9712 169.1648 48.64l220.2112-224.3584c16.384-16.6912 38.2464-25.9072 61.44-25.9072h0.0512c23.2448 0 45.056 9.216 61.44 25.9072a88.6784 88.6784 0 0 1 0 123.6992zM138.0864 484.7616c0 150.6304 120.2176 273.152 267.9296 273.152 147.8144 0 268.032-122.5216 268.032-273.152 0-150.528-120.2176-273.1008-268.032-273.1008-147.712 0-267.9296 122.5216-267.9296 273.1008z m739.1744-466.0224a28.4672 28.4672 0 0 0-40.8064 0l-214.8864 218.9312c14.6944 13.312 28.2624 27.7504 40.448 43.52l215.2448-219.3408a30.8736 30.8736 0 0 0 0-43.1104z"  horiz-adv-x="1024" />

    
    <glyph glyph-name="tuichu" unicode="&#58995;" d="M192.234591-128A192.059424 192.059424 0 0 0 0.028891 63.986287v639.954289A192.059424 192.059424 0 0 0 192.234591 896h383.680023a63.995429 63.995429 0 1 0 0-127.990858H192.234591a63.995429 63.995429 0 0 1-64.068567-63.995429v-639.954289c0-35.398614 28.669952-64.068567 64.068567-64.068566h383.680023a63.995429 63.995429 0 1 0 0-127.990858H192.234591z m545.387329 289.625027a63.922291 63.922291 0 0 0 0 90.398114l67.871724 67.944861H384.14774a63.995429 63.995429 0 1 0 0 127.990858h421.272766l-82.645525 82.791801a63.922291 63.922291 0 0 0 90.398114 90.471252l192.2057-191.986287a64.507392 64.507392 0 0 0 0-90.471252l-177.06621-177.139347a64.141704 64.141704 0 0 0-90.471252 0h-0.219413z"  horiz-adv-x="1024" />

    
    <glyph glyph-name="moren-shanchushangpinshuxingbiaoqian" unicode="&#58996;" d="M268.458667 627.541333a42.666667 42.666667 0 0 0 60.416 0l180.992-181.077333 180.992 181.077333a42.666667 42.666667 0 1 0 60.330666-60.416L570.197333 386.133333l180.992-180.992a42.666667 42.666667 0 0 0 4.949334-54.442666l-4.949334-5.973334a42.666667 42.666667 0 0 0-60.330666 0L509.866667 325.888 328.874667 144.810667a42.666667 42.666667 0 0 0-60.416 60.330666l181.077333 180.992-181.077333 180.992a42.666667 42.666667 0 0 0-4.864 54.442667z"  horiz-adv-x="1024" />

    
    <glyph glyph-name="fangda" unicode="&#58997;" d="M712.509885 244.077939l225.468561-225.541646V171.138677a42.608807 42.608807 0 0 0 85.217614 0v-259.307116l-0.365427-2.923417 0.146171 2.850331-0.438513-3.654271a42.828064 42.828064 0 0 0-30.915138-34.057812l-3.800442-0.584683a42.608807 42.608807 0 0 0-0.730855-0.146171l-2.923417-0.511598H724.861323a42.608807 42.608807 0 1 0 0 85.2907l152.602384-0.073086-225.46856 225.468561a42.828064 42.828064 0 1 0 60.514738 60.514738z m-341.308971 0c16.736564-16.80965 16.736564-43.85126 0-60.587824l-225.395475-225.468561h152.529298a42.608807 42.608807 0 1 0 0-85.217614H42.608807l-3.654271 0.146171-0.292342 0.073085-3.288844 0.438513a42.828064 42.828064 0 0 0-34.057812 30.915138L0-88.168439V171.138677a42.608807 42.608807 0 0 0 85.2907 0v-152.602384L310.61309 244.004853a42.828064 42.828064 0 0 0 60.514738 0zM984.168439 896A42.608807 42.608807 0 0 0 1023.19606 856.972379v-259.307116a42.608807 42.608807 0 1 0-85.2907 0l0.073086 152.529298-225.468561-225.395475a42.828064 42.828064 0 1 0-60.514738 60.514739l225.46856 225.395475H724.861323a42.608807 42.608807 0 1 0 0 85.2907h259.307116zM298.334737 896a42.608807 42.608807 0 1 0 0-85.2907H145.805439L371.200914 585.38691a42.828064 42.828064 0 1 0-60.514739-60.514738L85.2907 750.194561v-152.529298a42.608807 42.608807 0 1 0-85.2907 0V856.972379A42.608807 42.608807 0 0 0 39.027621 896h259.307116z"  horiz-adv-x="1024" />

    
    <glyph glyph-name="xinzengtupian" unicode="&#58998;" d="M512 896a64 64 0 0 0 64-64v-384h384a64 64 0 1 0 0-128H576v-384a64 64 0 1 0-128 0V320H64a64 64 0 1 0 0 128h384V832a64 64 0 0 0 64 64z"  horiz-adv-x="1024" />

    
    <glyph glyph-name="suoxiao" unicode="&#58999;" d="M725.226733 597.226696h213.153573a42.630715 42.630715 0 0 0 0-85.334552H682.596019a42.630715 42.630715 0 0 0-42.703838 42.703837V810.307145a42.630715 42.630715 0 1 0 85.334552 0v-213.153572z m-12.430911-72.903641a42.850084 42.850084 0 1 0-60.472729 60.545852L950.738095 883.357032A42.850084 42.850084 0 1 0 1011.430192 822.738057L712.868945 524.396178z m-414.02248 72.903641V810.307145a42.630715 42.630715 0 0 0 85.334552 0v-255.784287a42.630715 42.630715 0 0 0-42.703837-42.703837H85.692893a42.630715 42.630715 0 1 0 0 85.334552h213.153572z m72.903641-12.430912a42.850084 42.850084 0 1 0-60.545852-60.472729L12.643006 822.738057A42.850084 42.850084 0 1 0 73.261981 883.430155L371.60386 584.868907z m353.54975-414.02248v-213.153572a42.630715 42.630715 0 0 0-85.334552 0V213.404019c0 23.618732 19.085105 42.703838 42.703838 42.703837h255.784287a42.630715 42.630715 0 1 0 0-85.334552H725.226733z m-72.90364 12.430912a42.850084 42.850084 0 1 0 60.545852 60.472729L1011.357069-54.738057a42.850084 42.850084 0 1 0-60.618974-60.618975L652.396216 183.131093z m-566.703324-12.430912a42.630715 42.630715 0 0 0 0 85.334552h255.784288c23.618732 0 42.703838-19.085105 42.703837-42.703837v-255.784287a42.630715 42.630715 0 1 0-85.334552 0V170.773304H85.692893z m225.511362 72.903641a42.850084 42.850084 0 1 0 60.545852-60.545852L73.261981-115.357032A42.850084 42.850084 0 1 0 12.569883-54.738057L311.131131 243.603822z"  horiz-adv-x="1024" />

    
    <glyph glyph-name="xinzeng" unicode="&#59000;" d="M512 896a512 512 0 1 0 0-1024A512 512 0 0 0 512 896z m0-73.142857a438.857143 438.857143 0 1 1 0-877.714286A438.857143 438.857143 0 0 1 512 822.857143z m0-109.714286a36.571429 36.571429 0 0 0 36.571429-36.571428v-256H804.571429a36.571429 36.571429 0 0 0 0-73.142858H548.571429V91.428571a36.571429 36.571429 0 0 0-73.142858 0V347.428571H219.428571a36.571429 36.571429 0 0 0 0 73.142858h256V676.571429a36.571429 36.571429 0 0 0 36.571429 36.571428z"  horiz-adv-x="1024" />

    
    <glyph glyph-name="xiaodanchuangdeguanbi" unicode="&#59001;" d="M589.712974 394.182038L998.243627 802.712691a53.344479 53.344479 0 0 1 0 75.255647L995.991077 880.220887a53.344479 53.344479 0 0 1-75.255647 0l-408.530653-409.042596L103.776513 880.528053a53.344479 53.344479 0 0 1-75.153258 0L26.268316 878.173115a52.422981 52.422981 0 0 1 0-75.255647l408.530653-408.633042-408.530653-408.530653a53.344479 53.344479 0 0 1 0-75.255646l2.25255-2.150162a53.344479 53.344479 0 0 1 75.255647 0l408.530653 408.530653 408.530653-408.530653a53.344479 53.344479 0 0 1 75.153258 0l2.25255 2.150162a53.344479 53.344479 0 0 1 0 75.255646L589.712974 394.182038z"  horiz-adv-x="1024" />

    
    <glyph glyph-name="xiajia" unicode="&#59002;" d="M987.428571 530.285714a36.571429 36.571429 0 0 0 35.986286-29.988571L1024 493.714286v-438.857143a109.714286 109.714286 0 0 0-99.181714-109.202286L914.285714-54.857143h-804.571428a109.714286 109.714286 0 0 0-109.202286 99.181714L0 54.857143v438.857143a36.571429 36.571429 0 0 0 72.557714 6.582857L73.142857 493.714286v-438.857143a36.571429 36.571429 0 0 1 29.988572-35.986286L109.714286 18.285714h804.571428a36.571429 36.571429 0 0 1 35.986286 29.988572L950.857143 54.857143v438.857143a36.571429 36.571429 0 0 0 36.571428 36.571428zM512 822.857143a36.571429 36.571429 0 0 0 36.571429-36.571429v-506.294857l61.44 63.634286 5.046857 4.315428a36.571429 36.571429 0 0 0 47.542857-55.222857l-127.341714-131.657143-5.193143-4.388571a36.571429 36.571429 0 0 0-47.981715 5.12l-121.344 131.657143-4.022857 5.12a36.571429 36.571429 0 0 0 6.144 46.518857l5.266286 4.022857a36.571429 36.571429 0 0 0 46.445714-6.144l60.854857-66.194286V786.285714A36.571429 36.571429 0 0 0 512 822.857143z"  horiz-adv-x="1024" />

    
    <glyph glyph-name="zhaopian--guanbi" unicode="&#59003;" d="M518.85376-123.264A507.456 507.456 0 1 0 518.98176 891.584a507.456 507.456 0 0 0-0.128-1014.848z m232.704 655.36a24.448 24.448 0 0 1 0 34.56l-51.84 51.84a24.32 24.32 0 0 1-34.56 0L518.46976 471.68 371.65376 618.432a24.32 24.32 0 0 1-34.56 0l-51.84-51.84a24.448 24.448 0 0 1 0-34.496l146.816-146.752-146.752-146.816a24.448 24.448 0 0 1 0-34.56l51.84-51.776c9.472-9.536 24.96-9.536 34.496 0l146.752 146.816 146.816-146.816c9.536-9.536 24.96-9.536 34.56 0l51.776 51.84a24.448 24.448 0 0 1 0 34.56L604.74176 385.28l146.816 146.752z"  horiz-adv-x="1029" />

    
    <glyph glyph-name="hover-shanchushangpinshuxingbiaoqian" unicode="&#59004;" d="M512 384m-512 0a512 512 0 1 1 1024 0 512 512 0 1 1-1024 0ZM268.458667 627.541333a42.666667 42.666667 0 0 0 60.416 0l180.992-181.077333 180.992 181.077333a42.666667 42.666667 0 1 0 60.330666-60.416L570.197333 386.133333l180.992-180.992a42.666667 42.666667 0 0 0 4.949334-54.442666l-4.949334-5.973334a42.666667 42.666667 0 0 0-60.330666 0L509.866667 325.888 328.874667 144.810667a42.666667 42.666667 0 0 0-60.416 60.330666l181.077333 180.992-181.077333 180.992a42.666667 42.666667 0 0 0-4.864 54.442667z"  horiz-adv-x="1024" />

    
    <glyph glyph-name="duizhangtongji" unicode="&#58981;" d="M841.142857 896a182.857143 182.857143 0 0 0 182.491429-170.861714L1024 713.142857V384a36.571429 36.571429 0 0 0-72.557714-6.582857L950.857143 384V713.142857a109.714286 109.714286 0 0 1-99.181714 109.202286L841.142857 822.857143h-658.285714a109.714286 109.714286 0 0 1-109.202286-99.181714L73.142857 713.142857v-658.285714a109.714286 109.714286 0 0 1 99.181714-109.202286L182.857143-54.857143H512a36.571429 36.571429 0 0 0 6.582857-72.557714L512-128H182.857143a182.857143 182.857143 0 0 0-182.491429 170.861714L0 54.857143v658.285714A182.857143 182.857143 0 0 0 170.861714 895.634286L182.857143 896h658.285714z m163.913143-634.294857a36.571429 36.571429 0 0 0 15.286857-44.324572l-2.925714-5.924571-172.690286-285.110857a36.571429 36.571429 0 0 0-43.812571-15.433143l-5.851429 2.779429-133.193143 77.385142a36.571429 36.571429 0 0 0 30.72 66.048l5.997715-2.779428 102.107428-59.392 154.185143 254.390857a36.571429 36.571429 0 0 0 50.176 12.361143zM428.178286 629.321143L508.854857 548.571429l80.749714 80.749714a36.571429 36.571429 0 0 0 46.665143 4.169143l5.046857-4.169143a36.571429 36.571429 0 0 0 4.242286-46.665143l-4.242286-5.12L557.348571 493.714286H658.285714a36.571429 36.571429 0 0 0 0-73.142857H548.571429v-73.142858H658.285714a36.571429 36.571429 0 0 0 0-73.142857H548.498286L548.571429 164.571429a36.571429 36.571429 0 1 0-73.142858 0l-0.073142 109.714285H365.714286a36.571429 36.571429 0 0 0 0 73.142857h109.714285v73.142858H365.714286a36.571429 36.571429 0 0 0 0 73.142857h94.573714L376.393143 577.536a36.571429 36.571429 0 1 0 51.785143 51.785143z"  horiz-adv-x="1024" />

    
    <glyph glyph-name="liushuichaxun" unicode="&#58982;" d="M512 896a512 512 0 1 0 0-1024A512 512 0 0 0 512 896z m0-73.142857a438.857143 438.857143 0 1 1 0-877.714286A438.857143 438.857143 0 0 1 512 822.857143z m219.501714-475.428572a36.571429 36.571429 0 0 0 6.582857-72.557714L731.428571 274.285714H377.197714l79.579429-84.699428a36.571429 36.571429 0 0 0 2.779428-46.738286l-4.388571-4.900571a36.571429 36.571429 0 0 0-46.811429-2.779429l-4.900571 4.388571-137.508571 146.285715a36.571429 36.571429 0 0 0 20.48 61.074285l6.217142 0.512h438.857143zM615.643429 632.832l4.973714-4.388571 137.508571-146.285715a36.571429 36.571429 0 0 0-20.48-61.074285L731.428571 420.571429H292.571429a36.571429 36.571429 0 0 0-6.582858 72.557714L292.571429 493.714286h354.304L567.296 578.413714a36.571429 36.571429 0 0 0-2.779429 46.738286l4.388572 4.900571a36.571429 36.571429 0 0 0 46.811428 2.779429z"  horiz-adv-x="1024" />

    
    <glyph glyph-name="chuangjianxiaochengxu" unicode="&#58983;" d="M512 896a512 512 0 1 0 0-1024A512 512 0 0 0 512 896z m0-73.142857a438.857143 438.857143 0 1 1 0-877.714286A438.857143 438.857143 0 0 1 512 822.857143z m118.857143-173.714286a155.428571 155.428571 0 0 0 0-310.857143 36.571429 36.571429 0 0 0 0 73.142857A82.285714 82.285714 0 1 1 548.571429 493.714286v-210.285715h-1.170286A36.571429 36.571429 0 0 0 548.571429 274.285714a155.428571 155.428571 0 1 0-155.428572 155.428572 36.571429 36.571429 0 0 0 0-73.142857A82.285714 82.285714 0 1 1 475.428571 274.285714a36.571429 36.571429 0 0 0 1.170286 9.142857H475.428571v219.428572h0.292572l0.073143 1.974857a155.428571 155.428571 0 0 0 155.062857 144.310857z"  horiz-adv-x="1024" />

    
    <glyph glyph-name="mendianshezhi" unicode="&#58984;" d="M219.428571-128a182.857143 182.857143 0 0 0-182.491428 170.861714L36.571429 54.857143v292.571428a36.571429 36.571429 0 0 0 72.557714 6.582858l0.585143-6.582858v-292.571428a109.714286 109.714286 0 0 1 99.181714-109.202286L219.428571-54.857143h116.004572a109.568 109.568 0 0 0-6.290286 36.571429v219.428571A109.714286 109.714286 0 0 0 438.857143 310.857143h146.285714a109.714286 109.714286 0 0 0 109.714286-109.714286v-219.428571c0-12.873143-2.194286-25.161143-6.290286-36.571429H804.571429a109.714286 109.714286 0 0 1 109.202285 99.181714l0.512 10.532572v292.571428a36.571429 36.571429 0 0 0 72.557715 6.582858l0.585142-6.582858v-292.571428a182.857143 182.857143 0 0 0-170.861714-182.491429L804.571429-128H219.428571z m365.714286 365.714286H438.857143a36.571429 36.571429 0 0 1-36.571429-36.571429v-219.428571a36.571429 36.571429 0 0 1 36.571429-36.571429h146.285714a36.571429 36.571429 0 0 1 36.571429 36.571429v219.428571A36.571429 36.571429 0 0 1 585.142857 237.714286zM181.76 896l672.402286-0.073143c23.990857-1.462857 46.226286-13.604571 60.708571-34.157714l4.973714-8.118857 94.72-199.533715c5.339429-15.579429 8.411429-31.744 9.069715-47.542857 3.510857-59.757714-32.841143-114.688-90.624-137.508571-20.699429-7.68-42.642286-11.702857-62.902857-11.922286l-14.921143 0.585143-13.312 0.219429a186.587429 186.587429 0 0 0-129.024 61.952l-9.142857 10.752-2.779429 5.412571a20.48 20.48 0 0 1-13.897143 4.242286 34.377143 34.377143 0 0 1-10.971428-2.048l-1.974858-0.877715-1.755428-1.462857-15.286857-17.188571a190.098286 190.098286 0 0 0-110.006857-56.466286l-14.116572-1.536-14.336-0.512c-57.636571 0-112.201143 25.380571-145.554286 66.56l-3.218285 3.364572-2.925715 3.364571-2.706285 3.145143a27.501714 27.501714 0 0 1-25.307429 4.973714l-3.510857-1.828571-3.949714-4.900572-5.705143-8.484571a186.514286 186.514286 0 0 0-146.285714-68.681143 188.489143 188.489143 0 0 0-82.285715 14.701714A154.477714 154.477714 0 0 0 0 610.377143c1.024 12.507429 3.218286 24.868571 7.68 39.789714l3.803429 11.702857L109.714286 854.089143l0.292571 0.804571c6.436571 19.309714 26.331429 34.230857 52.297143 39.204572l10.020571 1.462857 9.508572 0.365714z m-1.682286-65.097143L78.774857 633.856c-3.072-9.508571-5.12-19.382857-5.851428-24.429714 1.682286-29.988571 21.504-56.905143 52.370285-69.485715 15.872-6.802286 33.353143-9.947429 52.882286-9.069714 35.693714-0.438857 69.266286 15.067429 87.478857 37.010286 4.461714 7.606857 9.728 14.628571 18.870857 24.283428 36.352 31.158857 90.989714 31.158857 129.389715-1.901714l1.755428-1.755428 1.462857-1.609143 17.993143-19.821715a118.491429 118.491429 0 0 1 83.382857-33.718857c31.963429 0 62.098286 12.434286 83.529143 33.645715l7.606857 8.484571 2.706286 2.925714 7.168 8.192 8.118857 7.168c16.822857 12.434286 37.302857 19.382857 57.782857 19.675429 22.381714 0.731429 44.397714-6.582857 65.682286-24.502857 5.851429-6.436571 10.971429-13.458286 12.653714-16.822857 18.724571-23.405714 47.323429-38.326857 80.969143-40.96l25.6-0.731429c12.653714 0.292571 25.088 2.706286 36.498286 6.875429 28.16 11.190857 45.421714 37.302857 43.812571 65.609142a112.859429 112.859429 0 0 1-2.56 19.017143l-1.097143 4.534857-92.233142 193.828572a5.339429 5.339429 0 0 1-3.291429 2.340571l-2.486857 0.292572L181.76 822.857143c-2.194286 0-2.706286 0.585143-2.486857 2.486857l0.365714 2.340571 0.438857 3.218286z"  horiz-adv-x="1024" />

    
    <glyph glyph-name="huiyuanguanli" unicode="&#58985;" d="M512 822.857143c46.226286 0 87.917714-23.917714 111.177143-64.950857l113.152-218.258286 106.788571 49.225143a127.195429 127.195429 0 0 0 125.878857-10.24l9.069715-6.729143c38.473143-31.451429 54.564571-81.188571 41.691428-128.073143l-103.643428-405.577143A126.756571 126.756571 0 0 0 793.453714-54.857143H230.4c-57.124571 0-107.52 37.961143-122.660571 93.257143L4.315429 443.757714a122.88 122.88 0 0 0 41.691428 128 127.488 127.488 0 0 0 134.875429 17.115429l106.642285-49.225143L400.822857 757.76a126.683429 126.683429 0 0 0 99.620572 64.512z m0-73.142857a53.028571 53.028571 0 0 1-47.030857-26.843429L342.308571 486.326857a52.370286 52.370286 0 0 0-67.437714-21.504l-124.708571 57.636572a54.345143 54.345143 0 0 1-57.856-7.314286 49.956571 49.956571 0 0 1-17.261715-52.809143l103.424-405.211429c6.217143-22.747429 27.574857-38.838857 51.931429-38.838857h563.053714c24.502857 0 45.787429 16.091429 51.931429 38.619429l103.643428 405.650286a49.883429 49.883429 0 0 1-17.261714 52.662857 54.198857 54.198857 0 0 1-57.782857 7.314285l-124.562286-57.490285c-24.137143-11.337143-52.955429-2.779429-68.096 22.162285L558.811429 722.944A52.882286 52.882286 0 0 1 512 749.714286z m109.714286-585.142857a36.571429 36.571429 0 1 0 0-73.142858h-219.428572a36.571429 36.571429 0 1 0 0 73.142858h219.428572z"  horiz-adv-x="1024" />

    
    <glyph glyph-name="yingxiaoguanli" unicode="&#58986;" d="M841.142857-54.857143a36.571429 36.571429 0 1 0 0-73.142857h-658.285714a36.571429 36.571429 0 1 0 0 73.142857h658.285714z m73.142857 950.857143A109.714286 109.714286 0 0 0 1024 786.285714v-585.142857a109.714286 109.714286 0 0 0-109.714286-109.714286h-804.571428A109.714286 109.714286 0 0 0 0 201.142857v585.142857A109.714286 109.714286 0 0 0 109.714286 896z m0-73.142857h-804.571428a36.571429 36.571429 0 0 1-36.571429-36.571429v-585.142857a36.571429 36.571429 0 0 1 36.571429-36.571428h804.571428a36.571429 36.571429 0 0 1 36.571429 36.571428v585.142857a36.571429 36.571429 0 0 1-36.571429 36.571429z m-100.717714-183.661714a36.571429 36.571429 0 0 0 4.242286-46.665143l-4.242286-5.12-238.738286-238.665143a36.571429 36.571429 0 0 0-46.665143-4.242286l-5.046857 4.242286-129.828571 129.828571-130.779429-130.925714a36.571429 36.571429 0 0 0-46.665143-4.169143l-5.12 4.242286a36.571429 36.571429 0 0 0-4.169142 46.665143l4.169142 5.046857 156.745143 156.672a36.571429 36.571429 0 0 0 46.665143 4.242286l5.046857-4.242286 129.828572-129.828572 212.845714 212.845715a36.571429 36.571429 0 0 0 51.712 0z"  horiz-adv-x="1024" />

    
    <glyph glyph-name="shangpinguanli" unicode="&#58987;" d="M914.285714 896a109.714286 109.714286 0 0 0 109.202286-99.181714L1024 786.285714v-658.285714a109.714286 109.714286 0 0 0-99.181714-109.202286L914.285714 18.285714H804.571429v-36.571428a109.714286 109.714286 0 0 0-99.181715-109.202286L694.857143-128h-585.142857A109.714286 109.714286 0 0 0 0-18.285714v658.285714A109.714286 109.714286 0 0 0 109.714286 749.714286H292.571429v36.571428A109.714286 109.714286 0 0 0 391.753143 895.488L402.285714 896h512z m-219.428571-219.428571h-585.142857a36.571429 36.571429 0 0 1-36.571429-36.571429v-658.285714a36.571429 36.571429 0 0 1 36.571429-36.571429h585.142857a36.571429 36.571429 0 0 1 36.571428 36.571429v658.285714a36.571429 36.571429 0 0 1-36.571428 36.571429z m219.428571 146.285714h-512a36.571429 36.571429 0 0 1-35.986285-29.988572L365.714286 786.285714V749.714286h329.142857a109.714286 109.714286 0 0 0 109.202286-99.181715L804.571429 640V91.428571h109.714285a36.571429 36.571429 0 0 1 35.986286 29.988572L950.857143 128v658.285714a36.571429 36.571429 0 0 1-29.988572 35.986286L914.285714 822.857143z m-365.714285-292.571429a36.571429 36.571429 0 0 0 36.571428-36.571428 182.857143 182.857143 0 0 0-365.714286 0 36.571429 36.571429 0 0 0 73.142858 0 109.714286 109.714286 0 0 1 219.428571 0 36.571429 36.571429 0 0 0 36.571429 36.571428z"  horiz-adv-x="1024" />

    
    <glyph glyph-name="xitongshezhi" unicode="&#58988;" d="M439.053166 891.538286a568.758857 568.758857 0 0 0 165.522285-3.437715l10.166858-2.267428c36.425143-10.020571 65.097143-37.668571 74.825142-73.289143l3.145143-9.654857c20.48-53.540571 80.969143-86.235429 142.482286-74.166857l10.971429 1.609143a110.006857 110.006857 0 0 0 96.694857-40.155429c31.451429-39.936 56.612571-84.041143 74.605714-130.998857 13.604571-35.913143 5.558857-76.068571-20.553143-104.301714l-7.314286-8.777143a108.763429 108.763429 0 0 1 6.363429-139.629715l6.582857-8.118857c20.406857-28.013714 25.234286-64.219429 12.214857-96.621714a503.661714 503.661714 0 0 0-66.194285-116.370286c-25.6-33.28-69.266286-48.347429-110.372572-38.912a132.388571 132.388571 0 0 1-95.378286-15.067428 115.565714 115.565714 0 0 1-54.345142-72.045715l-2.633143-9.435428c-12.434286-36.864-45.129143-64.146286-84.992-70.656a570.953143 570.953143 0 0 0-158.281143-3.145143c-45.494857 5.632-82.797714 38.180571-92.452572 81.846857l-2.925714 10.24A116.955429 116.955429 0 0 1 292.621166 32.914286a132.608 132.608 0 0 1-100.278857 11.556571l-10.020572-2.413714a110.299429 110.299429 0 0 0-107.52 39.716571A505.856 505.856 0 0 0 10.289737 191.341714 101.010286 101.010286 0 0 0 32.37888 302.08l7.460571 8.265143a109.714286 109.714286 0 0 1 25.234286 69.778286C65.14688 409.6 53.078309 437.979429 31.135451 459.337143L24.18688 466.797714A100.937143 100.937143 0 0 0 7.364023 570.002286a505.563429 505.563429 0 0 0 73.508571 123.977143c26.770286 33.206857 71.460571 47.542857 113.590857 36.644571l12.434286-2.633143c29.037714-4.754286 59.099429 0.219429 84.772572 14.262857a116.297143 116.297143 0 0 1 57.344 71.021715C359.473737 855.04 395.240594 885.76 438.90688 891.611429z m129.462857-72.118857a494.957714 494.957714 0 0 1-120.100572-0.438858 33.28 33.28 0 0 1-28.598857-24.064 189.586286 189.586286 0 0 0-93.037714-116.809142 205.824 205.824 0 0 0-150.674286-18.285715 37.522286 37.522286 0 0 1-38.253714-11.702857 431.835429 431.835429 0 0 1-62.683429-105.691428 27.867429 27.867429 0 0 1 7.021715-30.72c35.986286-35.108571 56.173714-82.358857 56.027428-131.510858a183.588571 183.588571 0 0 0-53.979428-129.609142 27.794286 27.794286 0 0 1-6.582857-30.646858c14.189714-33.060571 32.694857-64.365714 54.857142-93.257142a37.449143 37.449143 0 0 1 39.716572-11.849143 205.824 205.824 0 0 0 156.013714-17.993143 189.001143 189.001143 0 0 0 93.257143-122.953143c2.852571-12.946286 14.701714-23.405714 29.915429-25.234286a499.492571 499.492571 0 0 1 137.728 2.779429 33.499429 33.499429 0 0 1 28.16 24.576 188.708571 188.708571 0 0 0 88.210285 118.272 205.824 205.824 0 0 0 148.699429 23.552 35.913143 35.913143 0 0 1 36.278857 11.922286 430.08 430.08 0 0 1 56.393143 99.254857 27.282286 27.282286 0 0 1-5.412572 28.672 182.125714 182.125714 0 0 0 1.609143 246.710857 27.574857 27.574857 0 0 1 6.070857 28.745143 429.494857 429.494857 0 0 1-63.634285 111.616 37.156571 37.156571 0 0 1-36.132572 12.214857c-102.034286-19.968-203.337143 39.204571-230.4 136.045714a33.28 33.28 0 0 1-26.843428 23.04zM512.049737 530.285714a146.285714 146.285714 0 1 0 0-292.571428 146.285714 146.285714 0 0 0 0 292.571428z m0-73.142857a73.142857 73.142857 0 1 1 0-146.285714 73.142857 73.142857 0 0 1 0 146.285714z"  horiz-adv-x="1024" />

    
    <glyph glyph-name="shangjinguanli" unicode="&#58989;" d="M392.486485 862.13415c73.142805 48.566822 182.125584 45.348539 246.710681-12.580563L634.954884 853.430156c-1.097142 1.097142-0.438857 1.31657 2.413712 1.462856l5.193139 0.585143 5.631996 0.877713 13.750848 2.925713 41.47197 10.97142c29.769122 7.31428 42.422827 6.655995 66.998809-3.949711 32.475405-13.82399 57.051388-37.81483 65.316525-72.703948 7.31428-31.451406-0.950856-59.245672-18.285701-84.626226a203.629569 203.629569 0 0 0-3.583998-5.193139l-7.679994-9.874278a302.152927 302.152927 0 0 0-9.65485-10.971421l-21.577128-22.820555-13.165705-14.628561c-12.799991-15.140561-17.554273-23.844554-17.554273-29.330265 0-12.141706 9.435422-27.794266 35.47426-54.564532l15.871989-15.652561 19.455986-18.139415 64.511954-58.002245C977.043782 379.099066 1024.001463 304.712834 1024.001463 200.264908c0-51.63882-12.50742-100.059357-37.302831-142.847898-24.722268-42.569112-60.927956-78.335944-106.642209-106.349638C793.089628-102.400018 673.647427-128 524.436105-128c-147.529037 0-274.139233 27.940551-366.811166 83.017084-48.639965 28.745122-87.405652 64.585097-114.541633 106.788495A267.775809 267.775809 0 0 0 0.002194 208.38376c0 108.909636 52.516534 186.733581 162.815884 289.572364l46.079967 42.569113 17.700559 16.969131 14.555418 14.482275 6.143996 6.363424 10.093707 11.044563 7.460566 8.996565 5.119996 7.167995c2.559998 4.16914 3.730283 7.167995 3.730283 9.289137L271.362 620.982322a205.238711 205.238711 0 0 1-25.81941 39.497115l-28.452551 35.181689-8.996565 11.629706-6.802281 9.65485-5.851424 9.65485c-17.554273 30.573692-23.039984 63.561097-4.242283 97.426217 13.385133 24.137126 34.377118 38.034259 57.782816 44.470825 12.580562 3.510855 21.796556 4.242283 33.572548 4.242283 10.386278 0 16.67656-0.731428 29.98855-3.949712l26.623981-6.582852 17.115416-3.876569 13.677704-2.413713 6.217139-0.731428 6.143995-0.365714z m197.92443-67.071952C547.622375 833.46217 465.117291 831.779886 420.573322 791.770772c-18.431987-16.67656-61.220528-9.435422-92.818219-2.047999l-31.81712 7.82628-9.874279 1.82857-3.65714 0.292572c-5.339425 0-21.284556 0-27.428552-11.044564-6.363424-11.48342 2.194284-25.81941 17.919987-45.714253l29.18398-36.059403c22.16227-28.306265 44.690254-61.80567 44.690253-92.013648 0-34.742832-27.355409-69.046808-65.097096-106.13021l-21.577127-20.479986-47.542824-43.885683-24.502839-23.405697C127.41696 361.617936 73.144999 293.887699 73.144999 208.456903c0-38.546258 10.605707-74.532518 31.451406-107.007924 20.699414-32.182834 51.126821-60.269671 90.258222-83.382798C275.092284-29.769213 389.121916-54.857195 524.436105-54.857195c136.850188 0 243.56554 22.966841 317.293488 68.242237 35.98626 21.942841 63.341669 49.151965 81.700513 80.822799 18.212558 31.30512 27.428552 67.071952 27.428552 106.057067 0 98.157644-68.461665 168.959879-136.923331 230.472979l-36.205688 32.182834-23.625126 21.211413c-46.079967 42.569112-82.943941 84.699368-82.943941 132.022763 0 33.133691 20.991985 61.80567 42.934827 86.015939l29.695978 31.524549c14.409133 15.945131 23.917697 29.622836 20.699414 43.154254-2.194284 9.142851-9.727993 16.603417-22.674269 22.16227-6.290281 2.706284-14.409133 1.755427-25.965696-1.097142l-33.353119-8.850279c-31.30512-7.899423-69.778236-14.043419-92.159934 5.99771zM423.060178 487.204132l5.119996-4.16914 83.96794-84.041083 84.041083 84.041083a36.571402 36.571402 0 1 0 51.711963-51.785106L563.93322 347.428232H658.287438a36.571402 36.571402 0 0 0 0-73.142805H548.573231v-73.142805H658.287438a36.571402 36.571402 0 0 0 0-73.142805H548.573231v-73.142805a36.571402 36.571402 0 1 0-73.142805 0v73.142805H365.716219a36.571402 36.571402 0 1 0 0 73.142805h109.714207v73.142805H365.716219a36.571402 36.571402 0 0 0 0 73.142805h94.573647L376.395068 431.249886a36.571402 36.571402 0 0 0 46.66511 55.954246z"  horiz-adv-x="1024" />

    
    <glyph glyph-name="weixinfaquan" unicode="&#58990;" d="M914.285714 786.285714A109.714286 109.714286 0 0 0 1024 676.571429v-146.285715a36.571429 36.571429 0 0 0-36.571429-36.571428 109.714286 109.714286 0 0 1 0-219.428572l6.582858-0.585143A36.571429 36.571429 0 0 0 1024 237.714286v-146.285715a109.714286 109.714286 0 0 0-109.714286-109.714285h-804.571428A109.714286 109.714286 0 0 0 0 91.428571V237.714286a36.571429 36.571429 0 0 0 36.571429 36.571428 109.714286 109.714286 0 0 1 0 219.428572l-6.582858 0.585143A36.571429 36.571429 0 0 0 0 530.285714V676.571429a109.714286 109.714286 0 0 0 109.714286 109.714285z m0-73.142857h-804.571428A36.571429 36.571429 0 0 1 73.142857 676.571429v-113.371429l10.24-2.340571a183.003429 183.003429 0 0 0 135.68-164.864L219.428571 384c0-84.845714-57.782857-156.16-136.045714-176.859429L73.142857 204.873143V91.428571a36.571429 36.571429 0 0 1 29.988572-35.986285l6.582857-0.585143h804.571428a36.571429 36.571429 0 0 1 36.571429 36.571428V204.8l-10.24 2.340571a183.003429 183.003429 0 0 0-135.68 164.864L804.571429 384c0 84.845714 57.782857 156.16 136.045714 176.859429L950.857143 563.2V676.571429a36.571429 36.571429 0 0 1-29.988572 35.986285L914.285714 713.142857z m-219.428571-365.714286a36.571429 36.571429 0 0 0 0-73.142857h-365.714286a36.571429 36.571429 0 0 0 0 73.142857h365.714286z m0 146.285715a36.571429 36.571429 0 0 0 0-73.142857h-365.714286a36.571429 36.571429 0 0 0 0 73.142857h365.714286z"  horiz-adv-x="1024" />

    


  </font>
</defs>
</svg>
